<svg width="92" height="84" viewBox="0 0 92 84" fill="none" xmlns="http://www.w3.org/2000/svg">
<path d="M41.8988 16.5894C42.4988 18.2184 41.2598 20.0814 39.1288 20.7474C37.0018 21.4174 34.7858 20.6404 34.1868 19.0114C33.5858 17.3824 34.8248 15.5194 36.9558 14.8534C39.0838 14.1834 41.2988 14.9624 41.8988 16.5894Z" fill="#CFD0D5"/>
<path d="M50.605 10.4745C50.605 13.1135 47.71 15.2475 44.144 15.2475C40.577 15.2475 37.688 13.1125 37.688 10.4745C37.688 7.83546 40.577 5.69946 44.144 5.69946C47.71 5.69846 50.605 7.83546 50.605 10.4745Z" fill="#CFD0D5"/>
<path d="M62.3202 4.85644C64.7092 5.99744 65.8102 8.41144 64.7792 10.2524C63.7442 12.0964 60.9702 12.6684 58.5812 11.5314C56.1942 10.3904 55.0932 7.97644 56.1252 6.13144C57.1592 4.29144 59.9312 3.71944 62.3202 4.85644Z" fill="#CFD0D5"/>
<path d="M78.2902 13.3726C74.2972 10.2536 68.6632 10.3026 65.7152 13.4816C62.7722 16.6616 63.6172 21.7686 67.6112 24.8916C71.6112 28.0126 77.2402 27.9636 80.1892 24.7846C83.1382 21.6026 82.2852 16.4936 78.2902 13.3726Z" fill="white"/>
<path d="M80.7421 48.2225C79.9761 50.7045 77.9391 52.3435 76.1961 51.8845C74.4581 51.4295 73.6701 49.0444 74.4371 46.5644C75.2031 44.0844 77.2371 42.4415 78.9791 42.9025C80.7181 43.3565 81.5111 45.7415 80.7421 48.2225Z" fill="#CFD0D5"/>
<path d="M87.5091 59.5155C85.7771 62.6755 83.5921 64.8726 82.6361 64.4256C81.6791 63.9786 82.307 61.0545 84.04 57.8925C85.772 54.7325 87.954 52.5335 88.913 52.9805C89.869 53.4295 89.2441 56.3515 87.5091 59.5155Z" fill="#CFD0D5"/>
<path d="M72.9881 73.9075C75.3671 72.3665 76.3771 69.9115 75.2401 68.4175C74.1031 66.9315 71.2521 66.9705 68.8731 68.5135C66.4961 70.0545 65.4881 72.5135 66.6231 74.0055C67.7601 75.4935 70.6091 75.4485 72.9881 73.9075Z" fill="#CFD0D5"/>
<path d="M62.101 79.2826C63.719 78.5346 64.493 76.9366 63.828 75.7146C63.159 74.4956 61.308 74.1166 59.691 74.8626C58.072 75.6146 57.301 77.2166 57.968 78.4346C58.632 79.6556 60.486 80.0366 62.101 79.2826Z" fill="#CFD0D5"/>
<path d="M57.6111 81.5244C57.6871 82.1264 56.9141 82.7125 55.8741 82.8335C54.8381 82.9585 53.9321 82.5694 53.8521 81.9704C53.7701 81.3704 54.5471 80.7845 55.5851 80.6635C56.6231 80.5365 57.5281 80.9254 57.6111 81.5244Z" fill="#CFD0D5"/>
<path d="M45.2399 81.9235C45.8449 83.0605 47.6929 83.3685 49.3689 82.6165C51.0449 81.8605 51.9139 80.3255 51.3159 79.1885C50.7109 78.0515 48.8639 77.7475 47.1869 78.4975C45.5109 79.2515 44.6399 80.7885 45.2399 81.9235Z" fill="#CFD0D5"/>
<path d="M18.6699 15.6946C18.6699 16.9566 19.6489 17.9836 20.8539 17.9836C22.0619 17.9836 23.0419 16.9566 23.0419 15.6946C23.0419 14.4266 22.0629 13.4016 20.8539 13.4016C19.6489 13.4016 18.6699 14.4276 18.6699 15.6946Z" fill="#CFD0D5"/>
<path d="M34.3131 21.7125C34.9201 23.1245 33.9241 24.8145 32.0881 25.4855C30.2531 26.1575 28.2721 25.5575 27.6641 24.1475C27.0581 22.7375 28.0511 21.0475 29.8911 20.3745C31.7271 19.7025 33.7081 20.3045 34.3131 21.7125Z" fill="#CFD0D5"/>
<path d="M29.9639 25.0075C31.6989 26.9665 31.0739 30.0855 28.5669 31.9745C26.0589 33.8635 22.6219 33.8085 20.8879 31.8515C19.1469 29.8905 19.7729 26.7715 22.2799 24.8825C24.7869 22.9915 28.2259 23.0485 29.9639 25.0075Z" fill="#CFD0D5"/>
<path d="M41.5162 30.8974C41.5162 33.4264 39.2901 35.4774 36.5491 35.4774C33.8031 35.4774 31.5771 33.4264 31.5771 30.8974C31.5771 28.3664 33.8031 26.3154 36.5491 26.3154C39.2911 26.3154 41.5162 28.3664 41.5162 30.8974Z" fill="#CFD0D5"/>
<path d="M52.3099 55.7904C52.7409 57.5174 50.7059 59.4194 47.7649 60.0444C44.8239 60.6694 42.0879 59.7744 41.6589 58.0464C41.2309 56.3234 43.2639 54.4174 46.2089 53.7944C49.1489 53.1734 51.8819 54.0674 52.3099 55.7904Z" fill="#CFD0D5"/>
<path d="M41.521 60.6756C41.521 59.2596 43.211 58.1106 45.294 58.1106C47.382 58.1106 49.071 59.2596 49.071 60.6756C49.071 62.0936 47.382 63.2396 45.294 63.2396C43.211 63.2396 41.521 62.0936 41.521 60.6756Z" fill="#CFD0D5"/>
<path d="M50.4638 66.3544C50.4638 64.8384 48.9038 63.6084 46.9848 63.6084C45.0648 63.6084 43.5068 64.8384 43.5068 66.3544C43.5068 67.8724 45.0648 69.1044 46.9848 69.1044C48.9048 69.1044 50.4638 67.8724 50.4638 66.3544Z" fill="#CFD0D5"/>
<path d="M41.1242 66.2655C41.1242 68.1345 39.4352 69.6546 37.3512 69.6546C35.2642 69.6546 33.5742 68.1355 33.5742 66.2655C33.5742 64.3925 35.2642 62.8726 37.3512 62.8726C39.4342 62.8726 41.1242 64.3925 41.1242 66.2655Z" fill="#CFD0D5"/>
<path d="M44.1043 71.5654C44.1043 72.0144 43.4793 72.3784 42.7123 72.3784C41.9453 72.3784 41.3223 72.0154 41.3223 71.5654C41.3223 71.1154 41.9453 70.7524 42.7123 70.7524C43.4793 70.7524 44.1043 71.1164 44.1043 71.5654Z" fill="#CFD0D5"/>
<path d="M42.3151 75.6085C42.3151 76.5715 41.2041 77.3485 39.8321 77.3485C38.4601 77.3485 37.3511 76.5715 37.3511 75.6085C37.3511 74.6495 38.4601 73.8665 39.8321 73.8665C41.2041 73.8665 42.3151 74.6495 42.3151 75.6085Z" fill="#CFD0D5"/>
<path d="M49.47 77.5204C49.47 78.6394 48.268 79.5454 46.79 79.5454C45.306 79.5454 44.103 78.6394 44.103 77.5204C44.103 76.4014 45.305 75.4934 46.79 75.4934C48.268 75.4934 49.47 76.4014 49.47 77.5204Z" fill="#CFD0D5"/>
<path d="M38.7412 81.2904C38.7412 81.6444 38.1612 81.9314 37.4482 81.9314C36.7342 81.9314 36.1562 81.6444 36.1562 81.2904C36.1562 80.9354 36.7342 80.6494 37.4482 80.6494C38.1612 80.6494 38.7412 80.9354 38.7412 81.2904Z" fill="#CFD0D5"/>
<path d="M44.1042 82.1964C44.1042 82.8444 43.1682 83.3744 42.0162 83.3744C40.8662 83.3744 39.9282 82.8454 39.9282 82.1964C39.9282 81.5404 40.8662 81.0144 42.0162 81.0144C43.1682 81.0154 44.1042 81.5404 44.1042 82.1964Z" fill="#CFD0D5"/>
<path d="M13.5031 33.2826C13.5031 34.6496 12.6561 35.7576 11.6141 35.7576C10.5751 35.7576 9.7251 34.6506 9.7251 33.2826C9.7251 31.9176 10.5751 30.8096 11.6141 30.8096C12.6561 30.8106 13.5031 31.9176 13.5031 33.2826Z" fill="#CFD0D5"/>
<path d="M29.389 44.4524C30.619 47.9134 29.845 51.2554 27.658 51.9174C25.468 52.5794 22.694 50.3154 21.46 46.8534C20.228 43.3924 21.004 40.0484 23.191 39.3844C25.382 38.7224 28.155 40.9894 29.389 44.4524Z" fill="#CFD0D5"/>
<path d="M17.8739 43.5444C17.8739 45.8194 16.4049 47.6694 14.5949 47.6694C12.7819 47.6694 11.3149 45.8194 11.3149 43.5444C11.3149 41.2694 12.7829 39.4214 14.5949 39.4214C16.4049 39.4214 17.8739 41.2684 17.8739 43.5444Z" fill="#CFD0D5"/>
<path d="M25.1061 59.4646C26.7031 61.1986 27.2531 63.1916 26.3331 63.9116C25.4071 64.6306 23.3661 63.8106 21.7701 62.0716C20.1741 60.3376 19.6251 58.3426 20.5471 57.6246C21.4651 56.9056 23.5081 57.7266 25.1061 59.4646Z" fill="#CFD0D5"/>
<path d="M40.6408 50.7864C38.4708 48.7764 35.1068 48.6244 33.1238 50.4484C31.1428 52.2664 31.2888 55.3685 33.4588 57.3785C35.6248 59.3865 38.9908 59.5365 40.9768 57.7145C42.9578 55.8935 42.8098 52.7924 40.6408 50.7864Z" fill="#CFD0D5"/>
<path d="M29.604 69.4586C31.042 70.7826 31.358 72.6386 30.313 73.6046C29.267 74.5736 27.253 74.2866 25.815 72.9656C24.379 71.6396 24.061 69.7856 25.107 68.8176C26.153 67.8496 28.166 68.1386 29.604 69.4586Z" fill="#CFD0D5"/>
<path d="M27.958 74.4916C27.241 75.8586 28.065 77.5936 29.796 78.3586C31.525 79.1266 33.507 78.6416 34.222 77.2766C34.937 75.9076 34.115 74.1766 32.383 73.4096C30.651 72.6386 28.669 73.1246 27.958 74.4916Z" fill="#CFD0D5"/>
<path d="M34.5692 62.3254C34.5692 64.3504 32.7872 65.9894 30.5922 65.9894C28.3962 65.9894 26.6152 64.3504 26.6152 62.3254C26.6152 60.3024 28.3952 58.6614 30.5922 58.6614C32.7872 58.6614 34.5692 60.3024 34.5692 62.3254Z" fill="#CFD0D5"/>
<path d="M9.73997 52.6795C8.38697 53.4525 6.30697 52.6165 5.09197 50.8085C3.87997 49.0015 3.98897 46.9135 5.34297 46.1365C6.69597 45.3635 8.77596 46.2025 9.99096 48.0075C11.202 49.8135 11.09 51.9055 9.73997 52.6795Z" fill="#CFD0D5"/>
<path d="M7.42183 32.2165C8.50183 32.5795 9.03484 33.7575 8.60784 34.8515C8.17984 35.9495 6.95284 36.5445 5.86984 36.1815C4.78584 35.8225 4.25483 34.6425 4.68383 33.5485C5.11183 32.4505 6.33583 31.8545 7.42183 32.2165Z" fill="#CFD0D5"/>
<path d="M18.9068 24.0486C17.6348 24.9296 16.0958 25.0196 15.4678 24.2496C14.8438 23.4836 15.3668 22.1445 16.6388 21.2635C17.9128 20.3845 19.4528 20.2925 20.0808 21.0625C20.7058 21.8315 20.1798 23.1676 18.9068 24.0486Z" fill="#CFD0D5"/>
<path d="M20.0552 32.9354C21.2402 33.4644 21.5782 35.0774 20.8152 36.5314C20.0472 37.9904 18.4652 38.7424 17.2832 38.2134C16.0962 37.6844 15.7572 36.0704 16.5202 34.6154C17.2902 33.1574 18.8712 32.4054 20.0552 32.9354Z" fill="#CFD0D5"/>
<path d="M10.3672 50.9135C9.9712 49.0795 10.6612 47.4075 11.8952 47.1845C13.1352 46.9555 14.4572 48.2645 14.8472 50.1025C15.2412 51.9365 14.5542 53.6084 13.3172 53.8344C12.0792 54.0584 10.7602 52.7515 10.3672 50.9135Z" fill="#CFD0D5"/>
<path d="M55.0442 4.4875C54.3372 5.8975 52.1692 6.3565 50.2082 5.5165C48.2432 4.6785 47.2262 2.8555 47.9372 1.4475C48.6422 0.0415024 50.8112 -0.421498 52.7712 0.420502C54.7362 1.2585 55.7512 3.0805 55.0442 4.4875Z" fill="#CFD0D5"/>
<path d="M44.1039 1.78949C44.1039 2.68749 43.1239 3.41649 41.9159 3.41649C40.7089 3.41649 39.7329 2.68749 39.7329 1.78949C39.7329 0.88749 40.7089 0.156494 41.9159 0.156494C43.1239 0.156494 44.1039 0.88749 44.1039 1.78949Z" fill="#CFD0D5"/>
<path d="M38.3209 4.01261C37.5869 2.10661 34.6819 1.31962 31.8389 2.25462C28.9949 3.18862 27.2879 5.49162 28.0259 7.40062C28.7619 9.30262 31.6649 10.0916 34.5079 9.15862C37.3519 8.22262 39.0589 5.91961 38.3209 4.01261Z" fill="white"/>
<path d="M73.6603 11.5855C72.7213 13.0715 70.1132 13.2845 67.8422 12.0625C65.5642 10.8375 64.4812 8.64052 65.4202 7.15652C66.3612 5.67252 68.9653 5.45751 71.2443 6.67951C73.5163 7.90351 74.5993 10.1015 73.6603 11.5855Z" fill="white"/>
<path d="M86.3411 31.6326C83.8771 32.8576 80.2771 31.1036 78.3001 27.7166C76.3251 24.3276 76.7221 20.5916 79.1871 19.3686C81.6521 18.1476 85.2501 19.9036 87.2261 23.2906C89.2021 26.6756 88.8041 30.4116 86.3411 31.6326Z" fill="white"/>
<path d="M59.8938 27.9314C58.3988 29.4044 55.1558 28.8374 52.6458 26.6694C50.1418 24.5034 49.3198 21.5564 50.8178 20.0834C52.3098 18.6144 55.5558 19.1794 58.0638 21.3474C60.5698 23.5134 61.3898 26.4624 59.8938 27.9314Z" fill="white"/>
<path d="M72.8048 26.0894C74.3838 27.4954 74.7328 29.5214 73.5858 30.6104C72.4398 31.7024 70.2338 31.4444 68.6588 30.0364C67.0828 28.6284 66.7288 26.6014 67.8788 25.5114C69.0218 24.4214 71.2308 24.6774 72.8048 26.0894Z" fill="white"/>
<path d="M66.5352 38.5034C66.5352 40.2244 65.0302 41.6204 63.1682 41.6204C61.3132 41.6204 59.8052 40.2244 59.8052 38.5034C59.8052 36.7844 61.3132 35.3904 63.1682 35.3904C65.0302 35.3904 66.5352 36.7844 66.5352 38.5034Z" fill="white"/>
<path d="M82.5639 29.7265C81.1729 27.0295 78.6049 25.4786 76.8159 26.2556C75.0349 27.0366 74.7119 29.8555 76.0979 32.5545C77.4879 35.2495 80.0579 36.8025 81.8429 36.0215C83.6259 35.2415 83.9509 32.4215 82.5639 29.7265Z" fill="white"/>
<path d="M75.1909 44.1455C75.1909 45.6225 73.7519 46.8215 71.9799 46.8215C70.2099 46.8215 68.7749 45.6225 68.7749 44.1455C68.7749 42.6655 70.2109 41.4675 71.9799 41.4675C73.7509 41.4685 75.1909 42.6655 75.1909 44.1455Z" fill="white"/>
<path d="M90.0832 45.7744C90.4632 42.9134 89.3102 40.4284 87.5142 40.2234C85.7172 40.0224 83.9522 42.1804 83.5752 45.0414C83.1962 47.9044 84.3462 50.3894 86.1442 50.5924C87.9392 50.7964 89.7042 48.6364 90.0832 45.7744Z" fill="white"/>
<path d="M61.2532 53.0175C64.6142 48.9085 64.1862 43.3885 60.3062 40.6875C56.4202 37.9845 50.5482 39.1265 47.1892 43.2385C43.8282 47.3475 44.2492 52.8675 48.1352 55.5645C52.0162 58.2635 57.8922 57.1245 61.2532 53.0175Z" fill="white"/>
<path d="M64.216 60.5134C62.297 57.6794 57.496 57.2534 53.493 59.5604C49.493 61.8674 47.805 66.0294 49.723 68.8614C51.641 71.6954 56.444 72.1254 60.446 69.8144C64.447 67.5094 66.136 63.3474 64.216 60.5134Z" fill="white"/>
<path d="M23.919 5.87838C24.651 6.40338 24.077 8.22637 22.631 9.94637C21.183 11.6654 19.413 12.6304 18.675 12.1004C17.939 11.5754 18.513 9.75638 19.962 8.03538C21.408 6.31738 23.177 5.35238 23.919 5.87838Z" fill="white"/>
<path d="M43.1921 33.2905C42.4721 34.3085 43.4551 36.0695 45.3841 37.2335C47.3161 38.3915 49.4621 38.5085 50.1841 37.4935C50.9051 36.4735 49.9211 34.7085 47.9891 33.5505C46.0601 32.3885 43.9111 32.2725 43.1921 33.2905Z" fill="white"/>
<path d="M70.0702 40.2514C70.0702 42.0224 68.1132 43.4584 65.6982 43.4584C63.2832 43.4584 61.3262 42.0224 61.3262 40.2514C61.3262 38.4814 63.2832 37.0444 65.6982 37.0444C68.1132 37.0444 70.0702 38.4814 70.0702 40.2514Z" fill="white"/>
<path d="M44.6331 47.2454C43.5901 50.1144 40.6331 51.7804 38.0281 50.9684C35.4141 50.1554 34.1491 47.1734 35.1921 44.3004C36.2361 41.4294 39.1931 39.7634 41.8011 40.5754C44.4091 41.3884 45.6751 44.3764 44.6331 47.2454Z" fill="white"/>
<path d="M69.167 56.7295C68.007 58.5695 65.524 59.2474 63.622 58.2394C61.722 57.2354 61.122 54.9285 62.28 53.0895C63.442 51.2495 65.924 50.5735 67.823 51.5795C69.724 52.5835 70.326 54.8905 69.167 56.7295Z" fill="white"/>
<path d="M14.253 23.8524C13.168 25.7624 10.896 26.6494 9.17897 25.8314C7.46397 25.0154 6.95296 22.8004 8.03596 20.8924C9.11796 18.9844 11.391 18.0994 13.108 18.9174C14.823 19.7334 15.337 21.9464 14.253 23.8524Z" fill="white"/>
<path d="M21.1039 61.1815C23.0649 63.3905 23.0879 66.3655 21.1589 67.8205C19.2259 69.2775 16.0699 68.6645 14.1119 66.4555C12.1489 64.2465 12.1279 61.2675 14.0589 59.8125C15.9899 58.3565 19.1429 58.9705 21.1039 61.1815Z" fill="white"/>
<path d="M13.223 60.4235C11.782 61.3965 9.61395 60.9505 8.38095 59.4215C7.15095 57.8965 7.32395 55.8665 8.76595 54.8905C10.209 53.9175 12.373 54.3655 13.607 55.8945C14.834 57.4215 14.666 59.4465 13.223 60.4235Z" fill="white"/>
<path d="M7.73885 54.5384C7.73885 55.9054 6.80585 57.0114 5.65285 57.0114C4.49985 57.0114 3.56885 55.9064 3.56885 54.5384C3.56885 53.1734 4.49985 52.0654 5.65285 52.0654C6.80585 52.0654 7.73885 53.1734 7.73885 54.5384Z" fill="white"/>
<path d="M3.47104 36.8376C3.05504 38.7246 1.97703 40.1106 1.06103 39.9396C0.151033 39.7676 -0.252963 38.1016 0.165037 36.2166C0.580037 34.3336 1.65703 32.9436 2.57303 33.1166C3.48303 33.2866 3.88704 34.9566 3.47104 36.8376Z" fill="white"/>
<path d="M32.863 81.5655C33.413 80.9345 32.948 79.7435 31.823 78.9135C30.694 78.0815 29.335 77.9215 28.784 78.5545C28.233 79.1895 28.698 80.3765 29.825 81.2105C30.951 82.0425 32.309 82.2025 32.863 81.5655Z" fill="white"/>
<path d="M13.094 16.1325C12.327 17.0815 11.448 17.6755 11.125 17.4545C10.805 17.2395 11.1599 16.2885 11.9219 15.3355C12.6859 14.3865 13.565 13.7865 13.889 14.0095C14.212 14.2275 13.852 15.1775 13.094 16.1325Z" fill="white"/>
<path d="M5.60391 29.7824C4.78591 31.1394 3.61391 31.9794 2.98292 31.6554C2.34992 31.3314 2.50291 29.9694 3.32091 28.6144C4.13691 27.2574 5.31291 26.4194 5.94191 26.7434C6.57291 27.0674 6.42191 28.4274 5.60391 29.7824Z" fill="white"/>
<path d="M26.3068 69.5615C27.9748 71.4385 28.2258 73.7955 26.8658 74.8195C25.5088 75.8465 23.0548 75.1535 21.3858 73.2745C19.7188 71.3935 19.4668 69.0405 20.8258 68.0145C22.1838 66.9875 24.6388 67.6815 26.3068 69.5615Z" fill="white"/>
<path d="M46.5331 19.2635C46.5331 20.7365 45.9671 21.9295 45.2621 21.9295C44.5671 21.9295 43.9971 20.7365 43.9971 19.2635C43.9971 17.7905 44.5661 16.5955 45.2621 16.5955C45.9661 16.5955 46.5331 17.7905 46.5331 19.2635Z" fill="white"/>
<path d="M55.0232 13.6344C56.2382 11.4484 56.0582 9.13242 54.6282 8.46442C53.1932 7.79842 51.0482 9.03041 49.8332 11.2184C48.6202 13.4064 48.7962 15.7204 50.2292 16.3864C51.6622 17.0524 53.8102 15.8214 55.0232 13.6344Z" fill="white"/>
<path d="M78.63 61.6475C76.644 64.4695 73.993 66.1475 72.71 65.3875C71.429 64.6295 72 61.7295 73.989 58.9055C75.973 56.0795 78.627 54.4035 79.907 55.1615C81.192 55.9195 80.619 58.8235 78.63 61.6475Z" fill="#CFD0D5"/>
<path d="M19.3152 73.5305C18.3322 74.4465 15.6312 73.4625 13.2902 71.3355C10.9482 69.2105 9.84716 66.7475 10.8342 65.8375C11.8172 64.9255 14.5172 65.9075 16.8612 68.0325C19.2002 70.1575 20.3052 72.6185 19.3152 73.5305Z" fill="#CFD0D5"/>
<path d="M46.5328 28.7655C46.5328 30.1225 45.6618 31.2245 44.5918 31.2245C43.5228 31.2245 42.6538 30.1225 42.6538 28.7655C42.6538 27.4065 43.5228 26.3025 44.5918 26.3025C45.6618 26.3025 46.5328 27.4055 46.5328 28.7655Z" fill="white"/>
<path d="M91.0112 34.7786C91.0112 37.3466 90.2082 39.4266 89.2202 39.4266C88.2322 39.4266 87.4282 37.3466 87.4282 34.7786C87.4282 32.2106 88.2322 30.1306 89.2202 30.1306C90.2082 30.1306 91.0112 32.2106 91.0112 34.7786Z" fill="white"/>
<path d="M27.7761 13.6714C29.2711 12.3514 29.6471 10.4874 28.6141 9.50139C27.5831 8.51939 25.5321 8.79239 24.0341 10.1104C22.5361 11.4304 22.1591 13.2964 23.1941 14.2804C24.2261 15.2634 26.2781 14.9894 27.7761 13.6714Z" fill="white"/>
</svg>
