<svg width="13" height="14" viewBox="0 0 13 14" fill="none" xmlns="http://www.w3.org/2000/svg">
<path d="M0.0446444 6.99983C0.0446444 7.08595 0.0672951 7.17042 0.1103 7.24494C0.153304 7.31956 0.215237 7.38139 0.289752 7.4245L11.5647 13.9343C11.6645 13.992 11.7815 14.0125 11.895 13.9925C12.0085 13.9725 12.1113 13.9131 12.1854 13.8248C12.2595 13.7365 12.3 13.625 12.3 13.5096V0.490316C12.3 0.374984 12.2595 0.263481 12.1854 0.175177C12.1113 0.0868738 12.0085 0.0274568 11.895 0.00743081C11.7815 -0.0125936 11.6645 0.00797792 11.5647 0.0656433L0.289752 6.57544C0.215234 6.61855 0.153301 6.68037 0.1103 6.755C0.0672951 6.82952 0.0446444 6.91399 0.0446444 7.00011V6.99983Z" fill="#003366"/>
</svg>
