<svg width="13" height="14" viewBox="0 0 13 14" fill="none" xmlns="http://www.w3.org/2000/svg">
<path d="M12.9554 6.99983C12.9554 7.08595 12.9327 7.17042 12.8897 7.24494C12.8467 7.31956 12.7848 7.38139 12.7102 7.4245L1.43527 13.9343C1.33548 13.992 1.2185 14.0125 1.10503 13.9925C0.991451 13.9725 0.888701 13.9131 0.814628 13.8248C0.740549 13.7365 0.699951 13.625 0.699951 13.5096V0.490316C0.699951 0.374984 0.740547 0.263481 0.814628 0.175177C0.888707 0.0868738 0.991456 0.0274568 1.10503 0.00743081C1.2185 -0.0125936 1.33548 0.00797792 1.43527 0.0656433L12.7102 6.57544C12.7848 6.61855 12.8467 6.68037 12.8897 6.755C12.9327 6.82952 12.9554 6.91399 12.9554 7.00011V6.99983Z" fill="#003366"/>
</svg>
