<svg width="28" height="28" viewBox="0 0 28 28" fill="none" xmlns="http://www.w3.org/2000/svg">
<rect y="0.000976562" width="28" height="28" rx="8" fill="white"/>
<path d="M14 6.2959C9.74609 6.2959 6.29492 9.74707 6.29492 14.001C6.29492 18.2549 9.74609 21.7061 14 21.7061C18.2539 21.7061 21.7051 18.2549 21.7051 14.001C21.7051 9.74707 18.2539 6.2959 14 6.2959ZM14 18.999C11.2402 18.999 9.00195 16.7607 9.00195 14.001C9.00195 11.2412 11.2402 9.00293 14 9.00293C16.7598 9.00293 18.998 11.2412 18.998 14.001C18.998 16.7607 16.7598 18.999 14 18.999Z" fill="#003366"/>
<path d="M23.8086 5.99121C23.8086 6.98731 23 7.79004 22.0098 7.79004C21.0137 7.79004 20.2109 6.98145 20.2109 5.99121C20.2109 4.99512 21.0195 4.19238 22.0098 4.19238C23 4.19238 23.8086 5.00098 23.8086 5.99121Z" fill="#003366"/>
</svg>
