<svg width="20" height="20" viewBox="0 0 20 20" fill="none" xmlns="http://www.w3.org/2000/svg">
<path fill-rule="evenodd" clip-rule="evenodd" d="M12.9216 14.7094L17.8483 19.6344C18.3361 20.122 19.1283 20.1219 19.616 19.6341C20.1037 19.1461 20.1035 18.354 19.6158 17.8662L14.6923 12.9445C15.6827 11.5974 16.2682 9.93369 16.2682 8.13411C16.2682 3.64459 12.6236 0 8.13411 0C3.64459 0 0 3.64459 0 8.13411C0 12.6236 3.64459 16.2682 8.13411 16.2682C9.92317 16.2682 11.578 15.6896 12.9215 14.7091L12.9216 14.7094ZM8.13418 2.50038C11.2437 2.50038 13.7683 5.02497 13.7683 8.13454C13.7683 11.2441 11.2436 13.7687 8.13418 13.7687C5.02464 13.7687 2.50002 11.244 2.50002 8.13454C2.50002 5.02511 5.02461 2.50038 8.13418 2.50038Z" fill="white"/>
</svg>
