<svg width="30" height="26" viewBox="0 0 30 26" fill="none" xmlns="http://www.w3.org/2000/svg">
<path d="M9.4377 25.1885C20.7557 25.1885 26.9479 15.8094 26.9479 7.67836C26.9479 7.41469 26.942 7.14516 26.9303 6.88149C28.1348 6.01036 29.1744 4.93136 30 3.69516C28.8782 4.19429 27.6871 4.52027 26.4674 4.66196C27.7516 3.89217 28.7132 2.68288 29.1738 1.25825C27.9657 1.97423 26.6445 2.4793 25.2668 2.7518C24.3385 1.76549 23.1112 1.11243 21.7746 0.893601C20.438 0.67477 19.0665 0.902351 17.8722 1.54116C16.6779 2.17997 15.7273 3.19442 15.1673 4.42768C14.6074 5.66093 14.4693 7.04431 14.7744 8.36391C12.3281 8.24115 9.93492 7.60567 7.74998 6.49866C5.56503 5.39165 3.63712 3.83783 2.09121 1.93793C1.3055 3.29259 1.06507 4.89559 1.41879 6.42115C1.77251 7.94671 2.69383 9.28035 3.99551 10.151C3.01829 10.12 2.06247 9.85689 1.20703 9.38344V9.45961C1.20616 10.8812 1.69762 12.2593 2.59789 13.3595C3.49815 14.4597 4.75165 15.2142 6.14531 15.4948C5.24007 15.7424 4.28998 15.7785 3.36855 15.6002C3.76182 16.8228 4.52697 17.8922 5.55721 18.659C6.58746 19.4258 7.8314 19.8518 9.11543 19.8776C6.93553 21.5899 4.24272 22.5187 1.4707 22.5143C0.979109 22.5135 0.487999 22.4834 0 22.4241C2.81607 24.2307 6.09191 25.1903 9.4377 25.1885Z" fill="white"/>
</svg>
