<svg width="30" height="22" viewBox="0 0 30 22" fill="none" xmlns="http://www.w3.org/2000/svg">
<path d="M29.7012 5.00098C29.7012 5.00098 29.4082 2.93262 28.5059 2.02441C27.3633 0.829102 26.0859 0.823242 25.5 0.75293C21.3047 0.448242 15.0059 0.448242 15.0059 0.448242H14.9941C14.9941 0.448242 8.69531 0.448242 4.5 0.75293C3.91406 0.823242 2.63672 0.829102 1.49414 2.02441C0.591797 2.93262 0.304688 5.00098 0.304688 5.00098C0.304688 5.00098 0 7.43262 0 9.8584V12.1318C0 14.5576 0.298828 16.9893 0.298828 16.9893C0.298828 16.9893 0.591797 19.0576 1.48828 19.9658C2.63086 21.1611 4.13086 21.1201 4.79883 21.249C7.20117 21.4775 15 21.5479 15 21.5479C15 21.5479 21.3047 21.5361 25.5 21.2373C26.0859 21.167 27.3633 21.1611 28.5059 19.9658C29.4082 19.0576 29.7012 16.9893 29.7012 16.9893C29.7012 16.9893 30 14.5635 30 12.1318V9.8584C30 7.43262 29.7012 5.00098 29.7012 5.00098ZM11.9004 14.8916V6.45996L20.0039 10.6904L11.9004 14.8916Z" fill="white"/>
</svg>
