<svg width="83" height="100" viewBox="0 0 83 100" fill="none" xmlns="http://www.w3.org/2000/svg">
<path d="M0 82.1429H21.4287V92.8573H0V82.1429Z" fill="#003366"/>
<path d="M66.0722 35.7136C66.0722 37.6866 64.4729 39.2853 62.5005 39.2853C60.5282 39.2853 58.9288 37.6867 58.9288 35.7136C58.9288 33.7412 60.5282 32.1427 62.5005 32.1427C64.4729 32.1427 66.0722 33.7413 66.0722 35.7136Z" fill="#003366"/>
<path d="M10.7144 0H25.0019V5.35717H10.7144V0Z" fill="#003366"/>
<path d="M3.13338 49.6059C2.34714 49.8054 1.79409 50.5102 1.78735 51.3219V57.1432H80.3579V51.3219C80.3519 50.5057 79.7922 49.7972 78.9992 49.6022C78.5807 49.493 78.1681 49.3623 77.7638 49.2098C76.9327 49.7225 75.9768 49.996 75.0008 50.0005H50.002C48.5812 50.0005 47.218 49.4362 46.2135 48.4318C45.209 47.4266 44.6448 46.0641 44.6448 44.6433H35.7159C34.769 44.6433 33.8602 44.2674 33.1906 43.597C32.5209 42.9273 32.1442 42.0193 32.1442 41.0716V37.5007C32.1442 36.553 32.5209 35.645 33.1906 34.9754C33.8602 34.305 34.769 33.929 35.7159 33.929H44.6448V28.199C43.4699 28.4441 42.2733 28.5689 41.0731 28.5719C36.3385 28.5667 31.7996 26.6833 28.4521 23.3358C25.1039 19.9884 23.2212 15.4487 23.2161 10.7149V8.92871H12.5017V37.5016C12.4958 40.2706 11.5735 42.9596 9.87921 45.1495C8.18416 47.3392 5.81273 48.9066 3.13338 49.6068V49.6059Z" fill="#003366"/>
<path d="M69.6425 21.429V8.92847H58.9282V10.7147C58.9334 14.5831 57.6696 18.3469 55.3318 21.429L69.6425 21.429Z" fill="#003366"/>
<path d="M57.1448 0H71.4308V5.35717H57.1448V0Z" fill="#003366"/>
<path d="M35.7161 37.5005H44.6449V41.0722H35.7161V37.5005Z" fill="#003366"/>
<path d="M60.7162 82.1429H82.1468V92.8573H60.7162V82.1429Z" fill="#003366"/>
<path d="M25.0017 82.1429H57.1447V92.8573H25.0017V82.1429Z" fill="#003366"/>
<path d="M48.2145 26.7864V44.6433C48.2145 45.1172 48.4028 45.5708 48.7376 45.9064C49.0725 46.2412 49.5269 46.4288 50.0007 46.4288H74.9996C75.4734 46.4288 75.9278 46.2412 76.2626 45.9064C76.5975 45.5708 76.7858 45.1172 76.7858 44.6433V26.7864C76.7858 26.3125 76.5975 25.8581 76.2626 25.5233C75.9278 25.1885 75.4734 25.0001 74.9996 25.0001H50.0007C49.0142 25.0001 48.2145 25.7998 48.2145 26.7863L48.2145 26.7864ZM62.5005 28.5718C64.3951 28.5718 66.2119 29.3244 67.5512 30.6638C68.8905 32.0038 69.6432 33.8207 69.6432 35.7145C69.6432 37.609 68.8906 39.4258 67.5512 40.7651C66.2119 42.1052 64.395 42.8579 62.5005 42.8579C60.606 42.8579 58.7892 42.1053 57.4499 40.7651C56.1106 39.4258 55.3579 37.609 55.3579 35.7145C55.3579 33.8206 56.1105 32.0037 57.4499 30.6638C58.7892 29.3245 60.606 28.5718 62.5005 28.5718Z" fill="#003366"/>
<path d="M60.7162 60.7142H82.1468V71.4286H60.7162V60.7142Z" fill="#003366"/>
<path d="M1.78735 98.2145C1.78735 98.6884 1.97494 99.142 2.30977 99.4776C2.64534 99.8124 3.099 100 3.57284 100H78.5732C79.0471 100 79.5007 99.8124 79.8363 99.4776C80.1711 99.142 80.3587 98.6884 80.3587 98.2145V96.4291H1.78816L1.78735 98.2145Z" fill="#003366"/>
<path d="M27.2351 14.2672C28.0273 17.3367 29.8157 20.0549 32.3202 21.9972C34.8247 23.9396 37.9031 24.9957 41.0727 24.9993C42.4912 24.9986 43.9015 24.7819 45.2549 24.3551C45.6996 23.4777 46.3782 22.7393 47.216 22.2227C48.0531 21.7063 49.0172 21.4313 50.0016 21.4283H50.4447H50.444C52.6286 19.5524 54.1862 17.0524 54.9088 14.2654C52.3228 16.2496 48.0711 17.8566 41.0728 17.8566C34.0744 17.8566 29.8225 16.2498 27.2352 14.2669L27.2351 14.2672Z" fill="#003366"/>
<path d="M0 60.7142H21.4287V71.4286H0V60.7142Z" fill="#003366"/>
<path d="M1.78735 75.0006H80.3598V78.5723H1.78735V75.0006Z" fill="#003366"/>
<path d="M25.0017 60.7142H57.1447V71.4286H25.0017V60.7142Z" fill="#003366"/>
</svg>
