<svg width="76" height="100" viewBox="0 0 76 100" fill="none" xmlns="http://www.w3.org/2000/svg">
<path d="M41.8402 45.553H32.9786V36.6897C32.9786 35.9472 32.3799 35.351 31.6398 35.351H27.1206C26.3829 35.351 25.7834 35.9464 25.7834 36.6897V45.553H16.9169C16.1784 45.553 15.5781 46.154 15.5781 46.8917V51.4061C15.5781 52.1445 16.1784 52.7488 16.9169 52.7488H25.7834V61.6121C25.7834 62.3546 26.3821 62.9508 27.1206 62.9508H31.6398C32.3783 62.9508 32.9786 62.3546 32.9786 61.6121V52.7504H41.8402C42.5803 52.7504 43.1806 52.1462 43.1806 51.4077V46.8934C43.1806 46.1549 42.5803 45.553 41.8402 45.553V45.553Z" fill="#003366"/>
<path d="M46.0817 70.6951C39.6388 77.138 39.2114 87.3127 44.7888 94.2594L69.647 69.4053C62.7034 63.8254 52.5239 64.252 46.0827 70.6958L46.0817 70.6951Z" fill="#003366"/>
<path d="M44.47 69.0823C48.2403 65.3095 53.2529 63.2372 58.5822 63.2372C58.6417 63.2372 58.7044 63.2444 58.763 63.2444V27.1893C58.763 20.8861 53.6556 15.7795 47.3524 15.7795H44.217V11.7867H44.7867C48.0427 11.7867 50.6785 9.14697 50.6785 5.89487C50.6785 2.63558 48.0412 0 44.7867 0H13.9772C10.7229 0 8.08153 2.6364 8.08153 5.89487C8.08153 9.14841 10.7237 11.7867 13.9772 11.7867H14.5486V15.7795H11.4106C5.10824 15.7795 0 20.8861 0 27.1893V76.8214C0 83.1221 5.10906 88.2337 11.4106 88.2337H39.2743C37.5362 81.569 39.3032 74.2444 44.4701 69.0831L44.47 69.0823ZM9.859 49.1315C9.859 38.3477 18.5946 29.6099 29.3806 29.6099C40.1661 29.6099 48.9064 38.3479 48.9064 49.1315C48.9064 59.9178 40.1661 68.6573 29.3806 68.6573C18.5943 68.6573 9.859 59.9178 9.859 49.1315Z" fill="#003366"/>
<path d="M71.5015 71.2587L46.6475 96.1169C53.5919 101.694 63.7658 101.264 70.2117 94.8239C76.6515 88.3761 77.0798 78.2055 71.5031 71.2597L71.5015 71.2587Z" fill="#003366"/>
</svg>
