<svg width="100" height="64" viewBox="0 0 100 64" fill="none" xmlns="http://www.w3.org/2000/svg">
<path d="M92.1089 11.7464V34.1591C92.1089 34.7722 92.6065 35.2705 93.2203 35.2705L98.8874 35.2698C99.5005 35.2698 99.9988 34.7722 99.9988 34.1583V11.7456C99.9988 11.1325 99.5013 10.6342 98.8874 10.6342H93.2195C92.6065 10.6342 92.1089 11.1317 92.1089 11.7456L92.1089 11.7464Z" fill="#003366"/>
<path d="M76.6533 4.18295C76.3743 3.60864 75.793 3.24513 75.1544 3.24513H71.3923V1.66635C71.3923 0.746372 70.6459 0 69.7259 0C68.8059 0 68.0596 0.746372 68.0596 1.66635V4.91219L68.0588 21.3085H58.6435L61.7832 11.1848C62.1467 10.013 61.491 8.76656 60.3191 8.40386C59.148 8.03726 57.9009 8.69607 57.539 9.86794L53.9907 21.3084H53.9985L50.3759 32.9908H33.0683V26.9144H33.0691C33.2892 26.9144 33.5132 26.871 33.7294 26.778L38.926 24.5335L39.7491 26.4425C40.0212 27.0726 40.6358 27.4493 41.2814 27.4493C41.5015 27.4493 41.7248 27.4059 41.9402 27.3136C42.7858 26.9494 43.1749 25.9682 42.8114 25.1226L39.8461 18.244C39.4803 17.3976 38.499 17.0093 37.655 17.3728C36.8094 17.7371 36.4203 18.7183 36.7839 19.5639L37.6069 21.4736L33.069 23.4337V22.2991L38.5099 6.6391C38.8114 5.77027 38.351 4.82005 37.4822 4.51787C36.6111 4.21483 35.6632 4.67598 35.361 5.54559L29.883 21.3101L5.16271 21.3086C2.31131 21.3086 0 23.6197 0 26.4713V35.8044H20.9167L29.7344 48.1223H53.7106L59.2662 35.8044L79.2523 35.8486L84.8079 48.1222H88.7793V21.3087H84.9886L76.6533 4.18295ZM74.1119 6.57938L81.2787 21.3092H71.393V6.57938H74.1119Z" fill="#003366"/>
<path d="M12.3163 39.1355C5.51529 39.1355 0 44.6516 0 51.455C0 58.256 5.51529 63.7713 12.3163 63.7713C19.1197 63.7713 24.6342 58.256 24.6342 51.455C24.6357 44.6516 19.1197 39.1355 12.3163 39.1355ZM12.4674 58.3637C8.56504 58.3637 5.39202 55.1907 5.39202 51.2883C5.39202 47.3859 8.56504 44.2113 12.4674 44.2113C16.3698 44.2113 19.5444 47.3859 19.5444 51.2883C19.5444 55.1899 16.369 58.3637 12.4674 58.3637Z" fill="#003366"/>
<path d="M12.4687 47.5441C10.4056 47.5441 8.72681 49.2244 8.72681 51.2875C8.72681 53.3506 10.4056 55.0294 12.4687 55.0294C14.5318 55.0294 16.2121 53.3506 16.2121 51.2875C16.2121 49.2236 14.5326 47.5441 12.4687 47.5441Z" fill="#003366"/>
<path d="M69.2338 39.1355C62.432 39.1355 56.9175 44.6508 56.9175 51.4542C56.9175 58.2552 62.432 63.7705 69.2338 63.7705C76.0372 63.7705 81.5517 58.2552 81.5517 51.4542C81.5517 44.6516 76.0372 39.1355 69.2338 39.1355ZM69.2345 58.3637C65.3322 58.3637 62.1576 55.1907 62.1576 51.2883C62.1576 47.3859 65.3322 44.2113 69.2345 44.2113C73.1369 44.2113 76.31 47.3859 76.31 51.2883C76.3107 55.1899 73.1361 58.3637 69.2345 58.3637Z" fill="#003366"/>
<path d="M69.2383 47.5441C67.1752 47.5441 65.4949 49.2244 65.4949 51.2875C65.4949 53.3506 67.1752 55.0294 69.2383 55.0294C71.3014 55.0294 72.9802 53.3506 72.9802 51.2875C72.981 49.2236 71.3022 47.5441 69.2383 47.5441Z" fill="#003366"/>
</svg>
