<svg width="100" height="71" viewBox="0 0 100 71" fill="none" xmlns="http://www.w3.org/2000/svg">
<path d="M99.7141 60.8569V65.6651C99.7141 66.9046 99.2212 68.0929 98.3451 68.969C97.4689 69.8452 96.2807 70.3381 95.0412 70.3381H26.1982C21.4541 70.3421 16.8035 69.0218 12.7698 66.5254L0.792967 59.1199C0.29846 58.8111 -0.00159141 58.2686 6.34919e-06 57.6861V39.6529C0.0040071 39.0656 0.312062 38.5223 0.813779 38.2166C1.31468 37.9109 1.93881 37.8861 2.46291 38.1518C3.9112 38.9079 5.28357 39.8001 6.56219 40.8172L25.9789 56.185H95.041C96.2805 56.185 97.4688 56.6771 98.3449 57.5532C99.2211 58.4294 99.714 59.6184 99.714 60.8571L99.7141 60.8569ZM39.962 29.6821C39.0314 29.6853 38.2776 30.4391 38.2752 31.3689V52.8096H93.8589V31.3689C93.8565 30.4391 93.1027 29.6853 92.1721 29.6821H82.7255V43.2448C82.7255 44.177 81.9701 44.9324 81.0387 44.9324C80.1065 44.9324 79.3512 44.177 79.3512 43.2448V29.6821H69.5676V44.7299C69.5676 45.6613 68.8122 46.4167 67.88 46.4167C66.9486 46.4167 66.1933 45.6613 66.1933 44.7299V29.6829L53.946 29.6821V41.575C53.946 42.5072 53.1907 43.2625 52.2593 43.2625C51.3279 43.2625 50.5725 42.5072 50.5725 41.575V29.6821L39.962 29.6821ZM36.4533 22.2263C35.6435 20.1851 35.3906 15.9674 42.8633 10.536C48.0251 6.77453 60.9301 7.49947 72.3011 8.14042C76.8084 8.58531 81.346 8.64211 85.8638 8.30925C92.1227 7.14502 92.6957 6.23441 95.8674 1.15661C96.3155 0.208419 97.4149 -0.238871 98.3976 0.12761C100.591 0.987778 100.135 6.01515 99.3594 10.0976C97.4534 20.1852 92.5275 26.208 86.168 26.208L45.1916 26.2072C44.7051 26.2744 44.2146 26.3088 43.7233 26.3088C40.2826 26.3088 37.4652 24.7733 36.4531 22.2263H36.4533ZM62.3472 12.7293V12.7285C62.328 13.1766 62.4881 13.6134 62.7921 13.9431C63.0962 14.272 63.5187 14.4664 63.9668 14.4832L65.0294 14.5168C65.0462 14.5336 65.063 14.5336 65.0966 14.5336H65.0974C65.9976 14.5216 66.7345 13.8135 66.7841 12.9141C66.8209 11.9891 66.1064 11.2074 65.1814 11.1602H65.1646L64.102 11.1097H63.9668C63.085 11.1394 62.3776 11.8475 62.3472 12.7285L62.3472 12.7293ZM44.466 15.6138C44.7845 16.0491 45.2926 16.3068 45.8327 16.3052C46.1904 16.3076 46.5392 16.1956 46.8281 15.9843C47.4354 15.5458 49.6959 14.4832 57.4223 14.3816L57.4215 14.3824C58.3289 14.3768 59.0682 13.651 59.0906 12.7445C59.1138 11.8371 58.4121 11.0761 57.5063 11.0249H56.4941C56.1564 11.0417 55.8364 11.0417 55.5155 11.0585C54.7393 11.0753 53.9976 11.1257 53.3055 11.177C52.0444 11.2546 50.789 11.401 49.544 11.6154C49.2591 11.6538 48.9775 11.7099 48.7006 11.7843C48.4477 11.8347 48.1949 11.8851 47.9581 11.9363C47.5348 12.0403 47.1179 12.1699 46.7098 12.3236C46.5242 12.3908 46.3385 12.4588 46.1697 12.526C45.6992 12.7157 45.2519 12.9589 44.8374 13.2518C44.0941 13.8087 43.9292 14.8561 44.4661 15.6138L44.466 15.6138Z" fill="#003366"/>
</svg>
