<svg width="74" height="100" viewBox="0 0 74 100" fill="none" xmlns="http://www.w3.org/2000/svg">
<path d="M68.5198 26.9336C67.9924 26.8284 67.571 26.7225 67.0437 26.7225C64.4079 26.7225 62.0883 28.4097 61.2446 31.1508L58.1874 45.4898C58.0822 46.1223 57.2387 46.0172 57.1328 45.4898L50.8063 7.42807C50.279 4.15979 47.4321 1.84005 44.2696 2.15635C41.2124 2.4726 38.9979 5.10851 38.9979 8.27154V8.90403L41.3174 32.5213C41.4226 33.2597 40.3687 33.3649 40.2628 32.7324L33.8321 4.58144C33.0937 1.41822 30.1415 -0.585031 27.1895 0.153197C24.5537 0.680519 22.7613 3.10536 22.7613 5.84627C22.7613 6.16252 22.7613 6.47876 22.8665 6.90091L27.7168 36.9497C27.822 37.5822 26.8732 37.8984 26.6622 37.1608L18.9656 12.5946C18.0169 9.74766 15.17 8.16633 12.4289 8.904C10.0041 9.53649 8.52804 11.8562 8.52804 14.281C8.52804 14.7024 8.6332 15.2297 8.73911 15.6518L15.4869 43.5919C15.5921 44.1192 14.7485 44.4355 14.6433 43.803L10.11 29.675C8.95022 26.8281 5.78705 25.563 3.15119 26.6178C0.410088 27.7776 -0.433387 30.9408 0.19903 33.8929C2.51858 43.6979 5.57599 56.8776 7.68524 61.9384C11.3743 71.6376 21.3904 79.2289 25.8184 82.3927C27.2945 83.3414 28.2432 84.9233 28.6653 86.6097L30.9849 97.4694C31.3011 98.9454 32.672 100 34.1481 100H60.2958C62.4043 100 63.9864 97.9966 63.459 95.8881L59.8744 82.7088C59.3471 80.6003 59.7693 78.3858 61.0343 76.6987C64.5136 72.2704 70.9453 62.781 71.999 53.2923L73.1589 34.1032C73.581 30.8357 71.5776 27.7775 68.5196 26.9341L68.5198 26.9336ZM41.2123 76.3823C28.1382 69.6345 22.0232 65.3115 20.3363 57.9313C19.3876 53.503 22.1286 49.1802 26.5567 48.1263C30.8797 47.1775 35.3078 49.9186 36.2567 54.3467C35.3079 49.9185 38.049 45.5957 42.3719 44.6468C46.8001 43.698 51.1229 46.439 52.1769 50.8672C53.864 58.0363 49.6468 65.2062 41.2121 76.3823H41.2123Z" fill="#003366"/>
</svg>
