<svg width="100" height="100" viewBox="0 0 100 100" fill="none" xmlns="http://www.w3.org/2000/svg">
<path d="M1.56442 91.3357H23.2655L1.25037 96.8782C0.391662 97.1124 -0.0767265 97.9711 0.0794029 98.7518C0.235532 99.4543 0.86005 99.9227 1.56263 99.9227C1.71876 99.9227 1.79683 99.9227 1.95296 99.8447L36.1444 91.3355H63.8569L98.0484 99.8447C98.2045 99.8447 98.2826 99.9227 98.4387 99.9227C99.2974 99.9227 100 99.2202 100 98.3614C100 97.6589 99.5316 97.0343 98.829 96.8782L76.7372 91.3357H98.3615C99.2202 91.3357 99.9228 90.6331 99.9228 89.7744V30.4452C99.9228 27.869 97.8152 25.7614 95.2389 25.7614H92.1164V24.2001C92.1164 21.6238 90.0087 19.5162 87.4325 19.5162H74.9421V3.12259C74.9421 1.40516 73.537 0 71.8195 0H28.1033C26.3859 0 24.9807 1.40516 24.9807 3.12259V19.5162H12.4904C9.91413 19.5162 7.80647 21.6238 7.80647 24.2001V25.7614H4.68388C2.10766 25.7614 0 27.869 0 30.4452V89.7744C0 90.6331 0.702582 91.3357 1.56129 91.3357H1.56442ZM90.5582 85.0905H81.1904C80.3317 85.0905 79.6291 84.3879 79.6291 83.5292C79.6291 82.6705 80.3317 81.9679 81.1904 81.9679H90.5582C91.4169 81.9679 92.1195 82.6705 92.1195 83.5292C92.1195 84.3879 91.4169 85.0905 90.5582 85.0905ZM90.5582 78.8454H81.1904C80.3317 78.8454 79.6291 78.1428 79.6291 77.2841C79.6291 76.4253 80.3317 75.7228 81.1904 75.7228H90.5582C91.4169 75.7228 92.1195 76.4253 92.1195 77.2841C92.1195 78.1428 91.4169 78.8454 90.5582 78.8454ZM90.5582 72.6002H81.1904C80.3317 72.6002 79.6291 71.8976 79.6291 71.0389C79.6291 70.1802 80.3317 69.4776 81.1904 69.4776H90.5582C91.4169 69.4776 92.1195 70.1802 92.1195 71.0389C92.1195 71.8976 91.4169 72.6002 90.5582 72.6002ZM90.5582 66.355H81.1904C80.3317 66.355 79.6291 65.6524 79.6291 64.7937C79.6291 63.935 80.3317 63.2324 81.1904 63.2324H90.5582C91.4169 63.2324 92.1195 63.935 92.1195 64.7937C92.1195 65.6524 91.4169 66.355 90.5582 66.355ZM90.5582 60.1098H81.1904C80.3317 60.1098 79.6291 59.4072 79.6291 58.5485C79.6291 57.6898 80.3317 56.9872 81.1904 56.9872H90.5582C91.4169 56.9872 92.1195 57.6898 92.1195 58.5485C92.1195 59.4072 91.4169 60.1098 90.5582 60.1098ZM90.5582 53.8646H81.1904C80.3317 53.8646 79.6291 53.1621 79.6291 52.3034C79.6291 51.4446 80.3317 50.7421 81.1904 50.7421H90.5582C91.4169 50.7421 92.1195 51.4446 92.1195 52.3034C92.1195 53.1621 91.4169 53.8646 90.5582 53.8646ZM90.5582 47.6195H81.1904C80.3317 47.6195 79.6291 46.9169 79.6291 46.0582C79.6291 45.1995 80.3317 44.4969 81.1904 44.4969H90.5582C91.4169 44.4969 92.1195 45.1995 92.1195 46.0582C92.1195 46.9169 91.4169 47.6195 90.5582 47.6195ZM90.5582 41.3743H81.1904C80.3317 41.3743 79.6291 40.6717 79.6291 39.813C79.6291 38.9543 80.3317 38.2517 81.1904 38.2517H90.5582C91.4169 38.2517 92.1195 38.9543 92.1195 39.813C92.1195 40.6717 91.4169 41.3743 90.5582 41.3743ZM92.1195 33.5678C92.1195 34.4265 91.4169 35.1291 90.5582 35.1291H81.1904C80.3317 35.1291 79.6291 34.4265 79.6291 33.5678C79.6291 32.7091 80.3317 32.0065 81.1904 32.0065H90.5582C91.4169 32.0065 92.1195 32.7091 92.1195 33.5678ZM74.9453 22.6388H87.4356C88.2943 22.6388 88.9969 23.3413 88.9969 24.2001V25.7614H74.9453V22.6388ZM28.1064 3.1217H71.8227V88.2131H67.1388V54.6462C67.1388 52.9288 65.7336 51.5236 64.0162 51.5236H35.9129C34.1955 51.5236 32.7903 52.9288 32.7903 54.6462V88.2131H28.1064V3.1217ZM10.9322 24.1983C10.9322 23.3396 11.6348 22.637 12.4935 22.637H24.9838V25.7596H10.9322V24.1983ZM9.37089 32.0047H18.7387C19.5974 32.0047 20.2999 32.7073 20.2999 33.566C20.2999 34.4247 19.5974 35.1273 18.7387 35.1273H9.37089C8.51218 35.1273 7.80959 34.4247 7.80959 33.566C7.80959 32.7073 8.51218 32.0047 9.37089 32.0047ZM9.37089 38.2499H18.7387C19.5974 38.2499 20.2999 38.9525 20.2999 39.8112C20.2999 40.6699 19.5974 41.3725 18.7387 41.3725H9.37089C8.51218 41.3725 7.80959 40.6699 7.80959 39.8112C7.80959 38.9525 8.51218 38.2499 9.37089 38.2499ZM9.37089 44.4951H18.7387C19.5974 44.4951 20.2999 45.1977 20.2999 46.0564C20.2999 46.9151 19.5974 47.6177 18.7387 47.6177H9.37089C8.51218 47.6177 7.80959 46.9151 7.80959 46.0564C7.80959 45.1977 8.51218 44.4951 9.37089 44.4951ZM9.37089 50.7403H18.7387C19.5974 50.7403 20.2999 51.4429 20.2999 52.3016C20.2999 53.1603 19.5974 53.8629 18.7387 53.8629H9.37089C8.51218 53.8629 7.80959 53.1603 7.80959 52.3016C7.80959 51.4429 8.51218 50.7403 9.37089 50.7403ZM9.37089 56.9854H18.7387C19.5974 56.9854 20.2999 57.688 20.2999 58.5467C20.2999 59.4055 19.5974 60.108 18.7387 60.108H9.37089C8.51218 60.108 7.80959 59.4055 7.80959 58.5467C7.80959 57.688 8.51218 56.9854 9.37089 56.9854ZM9.37089 63.2306H18.7387C19.5974 63.2306 20.2999 63.9332 20.2999 64.7919C20.2999 65.6506 19.5974 66.3532 18.7387 66.3532H9.37089C8.51218 66.3532 7.80959 65.6506 7.80959 64.7919C7.80959 63.9332 8.51218 63.2306 9.37089 63.2306ZM9.37089 69.4758H18.7387C19.5974 69.4758 20.2999 70.1784 20.2999 71.0371C20.2999 71.8958 19.5974 72.5984 18.7387 72.5984H9.37089C8.51218 72.5984 7.80959 71.8958 7.80959 71.0371C7.80959 70.1784 8.51218 69.4758 9.37089 69.4758ZM9.37089 75.721H18.7387C19.5974 75.721 20.2999 76.4236 20.2999 77.2823C20.2999 78.141 19.5974 78.8436 18.7387 78.8436H9.37089C8.51218 78.8436 7.80959 78.141 7.80959 77.2823C7.80959 76.4236 8.51218 75.721 9.37089 75.721ZM9.37089 81.9662H18.7387C19.5974 81.9662 20.2999 82.6687 20.2999 83.5275C20.2999 84.3862 19.5974 85.0887 18.7387 85.0887H9.37089C8.51218 85.0887 7.80959 84.3862 7.80959 83.5275C7.80959 82.6687 8.51218 81.9662 9.37089 81.9662Z" fill="#003366"/>
<path d="M34.3508 18.7346C35.2096 18.7346 35.9121 18.032 35.9121 17.1733V9.36684C35.9121 8.50812 35.2096 7.80554 34.3508 7.80554C33.4921 7.80554 32.7896 8.50812 32.7896 9.36684V17.1733C32.7896 18.032 33.4921 18.7346 34.3508 18.7346Z" fill="#003366"/>
<path d="M40.596 18.7346C41.4547 18.7346 42.1573 18.032 42.1573 17.1733V9.36684C42.1573 8.50812 41.4547 7.80554 40.596 7.80554C39.7373 7.80554 39.0347 8.50812 39.0347 9.36684V17.1733C39.0347 18.032 39.7373 18.7346 40.596 18.7346Z" fill="#003366"/>
<path d="M46.8413 18.7346C47.7 18.7346 48.4026 18.032 48.4026 17.1733V9.36684C48.4026 8.50812 47.7 7.80554 46.8413 7.80554C45.9826 7.80554 45.28 8.50812 45.28 9.36684V17.1733C45.28 18.032 45.9826 18.7346 46.8413 18.7346Z" fill="#003366"/>
<path d="M53.0864 18.7346C53.9452 18.7346 54.6477 18.032 54.6477 17.1733V9.36684C54.6477 8.50812 53.9452 7.80554 53.0864 7.80554C52.2277 7.80554 51.5251 8.50812 51.5251 9.36684V17.1733C51.5251 18.032 52.2277 18.7346 53.0864 18.7346Z" fill="#003366"/>
<path d="M59.3316 18.7346C60.1903 18.7346 60.8929 18.032 60.8929 17.1733V9.36684C60.8929 8.50812 60.1903 7.80554 59.3316 7.80554C58.4728 7.80554 57.7703 8.50812 57.7703 9.36684V17.1733C57.7703 18.032 58.4728 18.7346 59.3316 18.7346Z" fill="#003366"/>
<path d="M65.5767 18.7346C66.4354 18.7346 67.138 18.032 67.138 17.1733V9.36684C67.138 8.50812 66.4354 7.80554 65.5767 7.80554C64.718 7.80554 64.0154 8.50812 64.0154 9.36684V17.1733C64.0154 18.032 64.718 18.7346 65.5767 18.7346Z" fill="#003366"/>
<path d="M34.3508 32.7864C35.2096 32.7864 35.9121 32.0838 35.9121 31.2251V23.4186C35.9121 22.5599 35.2096 21.8573 34.3508 21.8573C33.4921 21.8573 32.7896 22.5599 32.7896 23.4186V31.2251C32.7896 32.0838 33.4921 32.7864 34.3508 32.7864Z" fill="#003366"/>
<path d="M40.596 32.7864C41.4547 32.7864 42.1573 32.0838 42.1573 31.2251V23.4186C42.1573 22.5599 41.4547 21.8573 40.596 21.8573C39.7373 21.8573 39.0347 22.5599 39.0347 23.4186V31.2251C39.0347 32.0838 39.7373 32.7864 40.596 32.7864Z" fill="#003366"/>
<path d="M46.8413 32.7864C47.7 32.7864 48.4026 32.0838 48.4026 31.2251V23.4186C48.4026 22.5599 47.7 21.8573 46.8413 21.8573C45.9826 21.8573 45.28 22.5599 45.28 23.4186V31.2251C45.28 32.0838 45.9826 32.7864 46.8413 32.7864Z" fill="#003366"/>
<path d="M53.0864 32.7864C53.9452 32.7864 54.6477 32.0838 54.6477 31.2251V23.4186C54.6477 22.5599 53.9452 21.8573 53.0864 21.8573C52.2277 21.8573 51.5251 22.5599 51.5251 23.4186V31.2251C51.5251 32.0838 52.2277 32.7864 53.0864 32.7864Z" fill="#003366"/>
<path d="M59.3316 32.7864C60.1903 32.7864 60.8929 32.0838 60.8929 31.2251V23.4186C60.8929 22.5599 60.1903 21.8573 59.3316 21.8573C58.4728 21.8573 57.7703 22.5599 57.7703 23.4186V31.2251C57.7703 32.0838 58.4728 32.7864 59.3316 32.7864Z" fill="#003366"/>
<path d="M65.5767 32.7864C66.4354 32.7864 67.138 32.0838 67.138 31.2251V23.4186C67.138 22.5599 66.4354 21.8573 65.5767 21.8573C64.718 21.8573 64.0154 22.5599 64.0154 23.4186V31.2251C64.0154 32.0838 64.718 32.7864 65.5767 32.7864Z" fill="#003366"/>
<path d="M34.3508 46.838C35.2096 46.838 35.9121 46.1354 35.9121 45.2767V37.4702C35.9121 36.6115 35.2096 35.9089 34.3508 35.9089C33.4921 35.9089 32.7896 36.6115 32.7896 37.4702V45.2767C32.7896 46.1354 33.4921 46.838 34.3508 46.838Z" fill="#003366"/>
<path d="M40.596 46.838C41.4547 46.838 42.1573 46.1354 42.1573 45.2767V37.4702C42.1573 36.6115 41.4547 35.9089 40.596 35.9089C39.7373 35.9089 39.0347 36.6115 39.0347 37.4702V45.2767C39.0347 46.1354 39.7373 46.838 40.596 46.838Z" fill="#003366"/>
<path d="M46.8413 46.838C47.7 46.838 48.4026 46.1354 48.4026 45.2767V37.4702C48.4026 36.6115 47.7 35.9089 46.8413 35.9089C45.9826 35.9089 45.28 36.6115 45.28 37.4702V45.2767C45.28 46.1354 45.9826 46.838 46.8413 46.838Z" fill="#003366"/>
<path d="M53.0864 46.838C53.9452 46.838 54.6477 46.1354 54.6477 45.2767V37.4702C54.6477 36.6115 53.9452 35.9089 53.0864 35.9089C52.2277 35.9089 51.5251 36.6115 51.5251 37.4702V45.2767C51.5251 46.1354 52.2277 46.838 53.0864 46.838Z" fill="#003366"/>
<path d="M59.3316 46.838C60.1903 46.838 60.8929 46.1354 60.8929 45.2767V37.4702C60.8929 36.6115 60.1903 35.9089 59.3316 35.9089C58.4728 35.9089 57.7703 36.6115 57.7703 37.4702V45.2767C57.7703 46.1354 58.4728 46.838 59.3316 46.838Z" fill="#003366"/>
<path d="M65.5767 46.838C66.4354 46.838 67.138 46.1354 67.138 45.2767V37.4702C67.138 36.6115 66.4354 35.9089 65.5767 35.9089C64.718 35.9089 64.0154 36.6115 64.0154 37.4702V45.2767C64.0154 46.1354 64.718 46.838 65.5767 46.838Z" fill="#003366"/>
<path d="M40.596 97.581H59.3315C60.1902 97.581 60.8928 96.8784 60.8928 96.0197C60.8928 95.161 60.1902 94.4584 59.3315 94.4584H40.596C39.7373 94.4584 39.0347 95.161 39.0347 96.0197C39.0347 96.8784 39.7373 97.581 40.596 97.581Z" fill="#003366"/>
</svg>
