<svg width="82" height="100" viewBox="0 0 82 100" fill="none" xmlns="http://www.w3.org/2000/svg">
<path d="M14.4141 37.8991C18.1278 37.8991 21.1465 34.878 21.1465 31.1644C21.1465 27.4561 18.1278 24.4304 14.4141 24.4304C10.7028 24.4304 7.677 27.4561 7.677 31.1644C7.677 34.878 10.7026 37.8991 14.4141 37.8991Z" fill="#003366"/>
<path d="M66.6669 37.8991C70.3806 37.8991 73.404 34.878 73.404 31.1644C73.404 27.4561 70.3806 24.4304 66.6669 24.4304C62.9578 24.4304 59.9346 27.4561 59.9346 31.1644C59.9338 34.878 62.9572 37.8991 66.6669 37.8991Z" fill="#003366"/>
<path d="M81.0557 66.9403L77.2212 43.5441C76.7519 40.1027 74.4413 39.5265 73.1056 39.4899L73.0397 39.4791C72.762 39.4155 69.6495 39.362 65.9514 39.362C62.5542 39.362 60.5764 39.4054 60.3893 39.4418L60.328 39.4527C58.8559 39.5349 56.3173 40.1756 55.8628 43.6302L53.6042 54.4245L51.3417 43.6302C50.8972 40.2221 48.4276 39.552 46.9416 39.4573L46.9804 39.2448L46.909 39.4526H46.8788L46.8175 39.4418C46.5158 39.3797 43.5295 39.3549 40.5349 39.3619C37.5426 39.3549 34.5578 39.3805 34.2523 39.4472C34.2243 39.4472 34.191 39.4503 34.1607 39.4542L34.1041 39.282L34.1382 39.4542C32.6002 39.5674 30.1788 40.2616 29.7406 43.613L27.4758 54.4222L25.2172 43.6317C24.7634 40.1771 22.2225 39.5356 20.7472 39.4542L20.6883 39.4433C20.5013 39.4053 18.5236 39.3634 15.124 39.3634C11.4305 39.3634 8.31804 39.4177 8.04025 39.4805L7.97278 39.4914C6.63715 39.5294 4.32664 40.1041 3.85962 43.5456L0.0226668 66.9398C-0.0704078 67.6674 0.125047 68.3941 0.574125 68.9844C1.02321 69.5715 1.67706 69.9462 2.40848 70.0454C3.96282 70.2634 5.32491 69.1527 5.52347 67.6588L6.28979 61.8533L6.7505 65.1271L6.75283 96.6146C6.75283 98.4808 8.26839 99.9963 10.1323 99.9963C11.9915 99.9963 13.507 98.4815 13.507 96.6146L13.5062 70.4326H15.0443V96.6166C15.0443 98.4828 16.5599 99.9983 18.419 99.9983C20.2828 99.9983 21.7961 98.4835 21.7961 96.6166L21.7953 67.1147L22.2343 57.1999L24.7777 68.3293C25.1624 69.4012 26.211 70.1373 27.3814 70.1373C27.3946 70.1373 27.4093 70.1326 27.4225 70.1318C28.6301 70.1978 29.7633 69.4702 30.1844 68.2983L32.7185 57.196L33.1551 67.1053V96.6172C33.1551 98.4833 34.6684 99.9988 36.5322 99.9988C38.3984 99.9988 39.9117 98.4841 39.9117 96.6172L39.9125 70.4332H41.1721V96.6172C41.1721 98.4833 42.6853 99.9988 44.5468 99.9988C46.4106 99.9988 47.9239 98.4841 47.9239 96.6172V67.1153L48.3645 57.1966L50.903 68.3291C51.3203 69.4778 52.4543 70.206 53.6626 70.1324C53.6758 70.1331 53.6882 70.137 53.6991 70.137C54.8702 70.137 55.9182 69.401 56.3028 68.329L58.8461 57.1996L59.2851 67.1145V96.6164C59.2851 98.4825 60.7983 99.998 62.6598 99.998C64.5213 99.998 66.0345 98.4832 66.0345 96.6164L66.0353 70.4344H67.5757V96.6184C67.5757 98.4845 69.0889 100 70.9504 100C72.8142 100 74.3275 98.4852 74.3275 96.6184L74.3298 65.1308L74.7921 61.857L75.5584 67.6625C75.7539 69.1555 77.1151 70.2662 78.671 70.0492C79.4048 69.9499 80.0539 69.5753 80.5077 68.9881C80.9568 68.3971 81.1538 67.6695 81.0561 66.9427L81.0557 66.9403Z" fill="#003366"/>
<path d="M33.8059 31.164C33.8059 34.8776 36.8294 37.8987 40.5383 37.8987C44.2519 37.8987 47.2706 34.8776 47.2706 31.164C47.2706 27.4557 44.2519 24.4301 40.5383 24.4301C36.8292 24.4301 33.8059 27.4541 33.8059 31.164Z" fill="#003366"/>
<path d="M32.7803 6.74176C33.5319 9.09031 35.5671 13.6123 40.5706 16.3711C45.1847 13.8101 47.2511 9.72868 48.1198 7.27767C48.5565 6.03203 48.6821 5.20829 48.6821 5.20829C48.7341 4.93604 48.762 4.65605 48.762 4.36751C48.762 1.95759 46.8074 0 44.3921 0C42.7222 0 41.2733 0.93851 40.5397 2.31917C39.8044 0.938569 38.3579 0 36.6856 0C34.2749 0 32.3181 1.95845 32.3181 4.36751C32.3181 4.65526 32.3856 5.20829 32.3856 5.20829C32.3856 5.20829 32.481 5.80087 32.7804 6.7417L32.7803 6.74176Z" fill="#003366"/>
</svg>
