<svg width="100" height="71" viewBox="0 0 100 71" fill="none" xmlns="http://www.w3.org/2000/svg">
<path d="M59.1544 14.0777C60.6897 14.0777 62.2415 14.4955 63.3776 15.3124L71.7419 22.9769C73.8431 24.4882 77.1083 27.1667 79.0048 28.9253L86.6018 35.9868L100 20.4634L79.1805 0.534802L74.1683 5.45405C74.1683 5.45405 72.4918 5.07504 71.3262 4.50849L63.4734 0.68746C62.5193 0.223214 61.3437 0 60.1454 0C58.4217 0 56.6468 0.463472 55.4014 1.34315L43.2548 9.8618C41.1435 11.3553 40.6762 14.2749 42.217 16.3529L42.937 17.3263C43.9244 18.6563 45.5404 19.3833 47.1556 19.3833C48.0648 19.3833 48.9724 19.1546 49.7691 18.6733L55.5324 14.9942C56.5516 14.3803 57.8459 14.0773 59.1535 14.0773L59.1544 14.0777Z" fill="#003366"/>
<path d="M84.2635 41.6809L71.5504 29.866C70.446 28.9685 67.9829 27.0829 67.9829 27.0829L60.0155 19.7851C59.8465 19.7215 59.5381 19.6471 59.1552 19.6471C58.7576 19.6471 58.4949 19.727 58.4274 19.7572L52.6495 23.4401C51.0102 24.4299 49.1106 24.9515 47.1598 24.9515C43.7201 24.9515 40.4711 23.3417 38.4669 20.6392L37.7492 19.6711C36.1022 17.4513 35.4357 14.7303 35.8728 12.0067C36.3076 9.28543 37.7903 6.90765 40.0627 5.30249L41.3702 4.38561C39.4837 4.15541 37.3889 4.35538 35.8581 5.01106C35.8581 5.01106 33.2911 6.13876 32.4696 6.48676C30.5622 7.29668 27.8875 7.28428 27.8875 7.28428L21.6111 1.43884L0 22.9051L8.12638 31.0787L9.97178 29.1442C11.897 27.1243 14.6073 25.9642 17.4077 25.965C20.063 25.965 22.5811 26.9718 24.4978 28.7993L25.372 29.6341C26.4974 30.7075 27.329 31.9739 27.8599 33.3372C29.5387 33.7682 31.0865 34.6215 32.3706 35.8462L33.241 36.677C35.2243 38.5635 36.3551 41.1149 36.4217 43.8617C37.024 44.233 37.5936 44.6709 38.1137 45.1692L38.9933 46.0078C40.2257 47.1836 41.1023 48.5926 41.6178 50.1033C43.1741 50.5567 44.6102 51.3767 45.8052 52.5168L46.695 53.3623C50.2726 56.7756 50.8414 62.1746 48.3327 66.2181L48.9992 66.8405C50.8927 68.6029 53.8836 68.4936 55.6461 66.5994L56.4692 65.7104C58.1936 63.8534 58.1068 60.9602 56.3203 59.1916L62.4162 64.8463C64.3127 66.6049 67.3037 66.4941 69.0662 64.5976L69.8893 63.7117C71.6393 61.8283 71.5362 58.8637 69.6722 57.0982L71.2386 58.5561C73.1344 60.3162 76.1245 60.2046 77.8838 58.3104L78.7085 57.4237C80.4686 55.5272 80.357 52.5362 78.4628 50.7737L77.1398 49.5468C79.0417 51.2077 81.9505 51.0799 83.6773 49.2182L84.505 48.3308C86.2706 46.4327 86.1621 43.4417 84.264 41.6816L84.2635 41.6809Z" fill="#003366"/>
<path d="M42.8528 57.3911L41.9731 56.5541C41.0663 55.6899 39.8975 55.2598 38.7286 55.2598C37.4878 55.2598 36.2461 55.7465 35.3255 56.7122L35.31 56.6866C37.0918 54.8156 37.022 51.8223 35.1503 50.039L34.2722 49.2012C33.3685 48.3409 32.2112 47.9154 31.0503 47.9154C29.8761 47.9154 28.7059 48.3502 27.7982 49.2074L29.5606 47.3604C31.3471 45.4879 31.2773 42.4947 29.4017 40.7104L28.5251 39.8726C27.6207 39.0107 26.4565 38.5837 25.2932 38.5837C24.0841 38.5837 22.8797 39.0425 21.9652 39.9524C23.4339 38.0745 23.2882 35.3425 21.5289 33.6637L20.6546 32.829C19.7471 31.9648 18.5759 31.5347 17.408 31.5347C16.1633 31.5339 14.9247 32.0214 14.0032 32.9871L5.17072 42.2474C3.385 44.1176 3.45476 47.1109 5.3327 48.8942L6.20617 49.7297C7.10833 50.5885 8.26629 51.0109 9.42423 51.0109C10.4922 51.0109 11.558 50.652 12.4228 49.9444L10.0955 52.3819C8.31361 54.2552 8.38415 57.2462 10.2543 59.0319L11.1356 59.869C12.0424 60.7332 13.2135 61.1633 14.3792 61.1633C15.6239 61.1633 16.8639 60.6766 17.784 59.7109L19.6007 57.805C17.9839 59.6829 18.0917 62.5381 19.9053 64.2657L20.7865 65.1036C21.6918 65.967 22.8621 66.3971 24.031 66.3971C25.2734 66.3971 26.5143 65.9104 27.4341 64.9447L30.3546 61.9234C28.5689 63.7967 28.6378 66.7877 30.5127 68.5734L31.3924 69.4105C32.2961 70.2747 33.4656 70.7048 34.6344 70.7048C35.8768 70.7048 37.1178 70.2181 38.0376 69.2524L43.0134 64.0379C44.796 62.1685 44.7239 59.176 42.8529 57.3911L42.8528 57.3911Z" fill="#003366"/>
</svg>
