<svg width="100" height="89" viewBox="0 0 100 89" fill="none" xmlns="http://www.w3.org/2000/svg">
<path d="M17.9 34.341C17.5603 35.5408 17.6203 36.841 17.6803 38.1008C17.7005 38.3408 17.7005 38.6009 17.7201 38.8409C17.7598 40.1209 17.7201 41.5411 17.1802 42.8009C19.3802 41.9806 20.1998 39.4805 20.9204 37.2611C21.5405 35.3609 22.0601 33.7412 23.3402 33.3011C23.9805 33.0813 24.7401 33.2013 25.64 33.661C24.3802 34.941 23.5996 36.7008 23.5802 38.661C23.5599 42.621 26.7805 45.861 30.7405 45.861C34.7207 45.8812 37.9405 42.6808 37.9609 38.7006C37.9811 34.7406 34.7605 31.5006 30.8005 31.5006C29.5205 31.5006 28.3207 31.8208 27.2807 32.4005C26.5609 31.2607 25.2007 30.3601 23.8809 30.2401C21.3007 29.9806 18.6005 31.841 17.9002 34.341L17.9 34.341Z" fill="white"/>
<path d="M100 10.5798C99.9798 4.05978 95.5796 -0.020043 90.2002 0.000135543C84.8005 0.0203641 80.4402 4.11978 80.4604 10.6405C80.4806 19.0208 87.4804 22.8608 89.64 23.8603C90.5398 29.7001 86.78 36.2005 87.2398 42.0014L81.1398 44.9814C77.44 46.8012 73.3602 47.7415 69.2195 47.7415C65.0998 47.7415 61.0191 46.8013 57.2991 44.9814L51.7195 42.2617C49.8598 41.4414 48.5993 41.982 48.0197 42.3817L42.6995 44.9815C38.9997 46.8013 34.9198 47.7417 30.7791 47.7417C26.6595 47.7417 22.5788 46.8014 18.8588 44.9815L12.7602 42.001C13.2199 36.1806 9.46022 29.7012 10.36 23.8599C12.5204 22.8799 19.5202 19.0399 19.5397 10.6401C19.5599 4.12011 15.2002 0.0199336 9.79986 0.000469329C4.40022 -0.0197592 0.0195087 4.06011 4.43838e-05 10.5801C-0.0201842 19.0601 6.87986 22.8605 9.05968 23.8599C8.51979 27.6601 9.70002 31.3801 10.6396 35.0799C11.1593 37.1397 11.5799 39.3997 11.4397 41.5601C10.6599 41.5001 9.88 41.7798 9.39936 42.4202C8.57904 43.4602 8.79947 44.9202 9.79906 45.7L10.1388 45.9602C9.89879 46.3599 9.59886 46.74 9.25845 47.1202C8.69833 47.7403 9.61838 48.6401 10.1583 48.02C10.5385 47.6001 10.8586 47.1802 11.1586 46.7603L18.3202 52.3001C21.6802 54.8999 23.1604 59.2602 22.08 63.3604L19.22 74.3404H23.0802V85.7404C23.0802 87.5401 24.5604 89.0008 26.36 89.0008C28.1596 89.0008 29.6398 87.5206 29.6398 85.7404V74.3404H31.8998V85.7404C31.8998 87.5401 33.38 89.0008 35.1796 89.0008C36.9793 89.0008 38.4595 87.5206 38.4595 85.7404V74.3404H42.3196L39.4596 63.3604C38.3994 59.2602 39.8796 54.9006 43.2195 52.3001L49.9591 47.0601L56.6987 52.3001C61.5389 55.9399 61.4791 65.6999 61.4791 65.6999V85.5999C61.4791 87.26 62.6593 88.7402 64.3187 88.9599C66.3186 89.2201 68.0387 87.6597 68.0387 85.7197V68.6794C68.0387 68.0592 68.5389 67.5591 69.1785 67.5591C69.7986 67.5591 70.3183 68.0592 70.3183 68.6794V85.7197C70.3183 87.6595 72.0384 89.2201 74.0383 88.9599C75.6782 88.7401 76.8779 87.26 76.8779 85.5999L76.8793 65.6999C76.8793 65.6999 76.8396 55.9195 81.6597 52.3001L88.82 46.7399C89.0998 47.1598 89.4402 47.6 89.8203 47.9997C90.3805 48.6198 91.2803 47.6997 90.7202 47.0998C90.3805 46.7399 90.1 46.3395 89.8399 45.9398L90.1796 45.6796C91.1798 44.8998 91.3996 43.4398 90.5793 42.3998C90.0791 41.7595 89.2993 41.4798 88.5389 41.5397C88.4189 39.3794 88.8388 37.1194 89.3592 35.0596C90.2995 31.3597 91.479 27.6397 90.9392 23.8396C93.1197 22.8602 100.02 19.0599 99.9995 10.5799L100 10.5798Z" fill="white"/>
<path d="M62.0195 38.6999C62.0398 42.6599 65.2597 45.8602 69.2399 45.8602C73.2201 45.84 76.4197 42.6201 76.4002 38.6602V38.6205H62.0204C62.0197 38.64 62.0197 38.6602 62.0197 38.7L62.0195 38.6999Z" fill="white"/>
<path d="M56.8199 37.4802H76.3198C75.7402 34.0804 72.7798 31.4799 69.2 31.5002C66.2599 31.5205 63.7599 33.2804 62.6404 35.7804H56.82C56.3604 35.7804 55.96 36.1606 55.96 36.6203C55.96 37.1002 56.3401 37.4803 56.82 37.4803L56.8199 37.4802Z" fill="white"/>
</svg>
