<svg width="95" height="100" viewBox="0 0 95 100" fill="none" xmlns="http://www.w3.org/2000/svg">
<path d="M65.6499 16.5096C62.7558 16.0523 59.799 16.763 57.4295 18.4852C55.0594 20.2082 53.4713 22.8016 53.0139 25.6949C51.1429 37.5247 69.622 55.5309 69.622 55.5309C69.622 55.5309 92.7535 44.1048 94.6246 32.2744C95.1524 28.9362 94.1232 25.5405 91.8313 23.0573C89.5394 20.5741 86.2369 19.2765 82.8668 19.5354C79.4977 19.7943 76.4321 21.5815 74.5464 24.3857C73.9682 22.3621 72.8234 20.5454 71.2477 19.1493C69.6712 17.7542 67.7297 16.8381 65.6501 16.5094L65.6499 16.5096Z" fill="white"/>
<path d="M43.7309 52.0063C47.3939 49.3386 50.9113 46.4763 54.2673 43.4317C50.6105 37.5731 47.8064 30.8989 48.7348 25.0208C49.2913 21.3981 51.1289 18.0956 53.9145 15.7138C56.6993 13.3312 60.2476 12.0284 63.9122 12.0407C64.7213 12.0415 65.5289 12.1051 66.3281 12.2314C68.5781 12.5887 70.7204 13.4436 72.5985 14.734C72.4752 10.1502 70.2817 5.86955 66.6336 3.0925C62.9845 0.316247 58.2745 -0.657982 53.824 0.444027C49.3735 1.54618 45.6625 4.60543 43.7311 8.76446C41.7779 4.56119 38.008 1.48433 33.4995 0.411487C28.9901 -0.661197 24.239 0.38901 20.6024 3.26215C16.965 6.13523 14.8438 10.5145 14.8438 15.1493C14.8438 31.5745 43.7313 52.0053 43.7313 52.0053L43.7309 52.0063Z" fill="white"/>
<path d="M72.7971 70.9294C62.3639 78.449 37.324 70.3465 54.3325 68.6862C70.7795 67.0803 69.6238 55.5318 60.9648 58.4646C53.2537 61.0765 48.1259 56.9602 34.5734 59.2575C25.6392 60.772 22.2536 62.098 17.0902 67.6771C17.0716 67.6973 8.54438 71.1393 1.91288 74.2745H1.91133C1.33855 74.5458 0.854137 74.9751 0.516212 75.5115C0.177514 76.0478 -0.00153771 76.6695 9.94867e-06 77.3035V98.6373C-0.000765069 99.1163 0.250353 99.5604 0.661137 99.8061C1.07192 100.053 1.58191 100.065 2.00432 99.8379C11.2811 94.8116 25.6934 85.5486 26.5664 85.9604C35.4866 90.162 50.7336 89.7612 64.1724 86.2433C69.8172 84.766 72.7958 83.9265 77.309 81.3674C82.1967 78.5957 85.3535 72.6719 92.0509 68.1206C98.8784 63.481 93.4026 56.0777 72.7966 70.9302L72.7971 70.9294Z" fill="white"/>
</svg>
