<svg width="70" height="66" viewBox="0 0 70 66" fill="none" xmlns="http://www.w3.org/2000/svg">
<path fill-rule="evenodd" clip-rule="evenodd" d="M51.4268 52.8558C48.5968 57.6784 44.832 61.959 40.276 65.4338C47.552 64.3352 54.093 60.9985 59.1771 56.148C56.8324 54.8139 54.2173 53.7167 51.4264 52.8558H51.4268ZM58.3342 0.565796C61.5922 0.565796 64.2327 3.20673 64.2327 6.46424C64.2327 9.72121 61.5917 12.3627 58.3342 12.3627C55.0762 12.3627 52.4358 9.72174 52.4358 6.46424C52.4358 3.20673 55.0762 0.565796 58.3342 0.565796ZM58.3342 14.0038C64.5759 14.0038 69.6361 19.064 69.6361 25.3056L47.0318 25.3051C47.0318 19.0639 52.0916 14.0036 58.3337 14.0036L58.3342 14.0038ZM35.001 0.565796C38.259 0.565796 40.8994 3.20673 40.8994 6.46424C40.8994 9.72121 38.259 12.3632 35.001 12.3632C31.743 12.3632 29.1026 9.72227 29.1026 6.46477C29.1026 3.2078 31.743 0.565796 35.001 0.565796ZM35.001 14.0038C41.2427 14.0038 46.3029 19.064 46.3029 25.3056L23.6986 25.3051C23.6986 19.0639 28.7589 14.0036 35.0005 14.0036L35.001 14.0038ZM11.6678 0.565796C14.9258 0.565796 17.5662 3.20673 17.5662 6.46424C17.5662 9.72121 14.9253 12.3627 11.6678 12.3627C8.40976 12.3627 5.76935 9.72174 5.76935 6.46424C5.76987 3.20673 8.41082 0.565796 11.6678 0.565796ZM11.6678 14.0038C17.9095 14.0038 22.9697 19.064 22.9697 25.3056L0.366731 25.3051C0.366731 19.0639 5.42701 14.0036 11.6682 14.0036L11.6678 14.0038ZM36.1899 65.4084V50.5138C40.5983 50.5987 44.9772 51.1584 49.0574 52.1917C45.877 57.4275 41.5167 61.9617 36.1899 65.4088V65.4084ZM50.268 50.0539C53.1222 44.6484 54.7732 38.5992 55.0072 32.2886H36.1896V48.1361C41.0117 48.2257 45.8125 48.8661 50.2677 50.0543L50.268 50.0539ZM14.9918 32.2886C15.2258 38.5991 16.8769 44.6488 19.7311 50.0539C24.1877 48.8657 28.988 48.2253 33.8106 48.1352V32.289L14.9918 32.2886ZM20.9436 52.1917C24.1234 57.4275 28.4837 61.9617 33.8111 65.4088L33.8106 50.5142C29.4021 50.6002 25.0232 51.1593 20.9436 52.1921L20.9436 52.1917ZM29.7247 65.4341C22.4496 64.3355 15.9077 60.9987 10.8235 56.1483C13.1679 54.8147 15.7833 53.7175 18.5743 52.856C21.4037 57.6787 25.1691 61.9587 29.7251 65.4341H29.7247ZM17.4069 50.7344C14.4124 51.6916 11.6105 52.9114 9.10982 54.3952C3.74259 48.5092 0.355598 40.7889 0 32.2893H12.6215C12.8499 38.8333 14.5164 45.1087 17.4068 50.7345L17.4069 50.7344ZM57.3789 32.2891H70C69.6443 40.7897 66.2574 48.5091 60.8902 54.395C58.3891 52.9113 55.5871 51.6916 52.5931 50.7342C55.4836 45.1082 57.1491 38.8328 57.3789 32.289V32.2891Z" fill="#FBC506"/>
</svg>
